<?xml version="1.0" encoding="UTF-8"?>
<svg width="100px" height="100px" viewBox="0 0 100 100" version="1.1" xmlns="http://www.w3.org/2000/svg" xmlns:xlink="http://www.w3.org/1999/xlink">
    <!-- Generator: Sketch 39.1 (31720) - http://www.bohemiancoding.com/sketch -->
    <title>Artboard 4</title>
    <desc>Created with Sketch.</desc>
    <defs></defs>
    <g id="Page-1" stroke="none" stroke-width="1" fill="none" fill-rule="evenodd">
        <g id="Artboard-4" fill="#9B9B9B">
            <g id="noun_641582_cc">
                <g id="Group">
                    <path d="M63.0769231,23.4444444 L63.0769231,6.44444444 C63.0769231,2.88888889 60.2197802,0 56.7032967,0 L43.6263736,0 C40.1098901,0 37.2527473,2.88888889 37.2527473,6.44444444 L37.2527473,23.4444444 C37.2527473,25.1111111 37.9120879,26.7777778 39.1208791,28 L45.7142857,34.6666667 C48.1318681,37.1111111 52.1978022,37.1111111 54.6153846,34.6666667 L61.2087912,28 C62.4175824,26.7777778 63.0769231,25.1111111 63.0769231,23.4444444 L63.0769231,23.4444444 Z M24.0659341,36.7777778 L7.25274725,36.7777778 C3.73626374,36.7777778 0.879120879,39.6666667 0.879120879,43.2222222 L0.879120879,56.4444444 C0.879120879,60 3.73626374,62.8888889 7.25274725,62.8888889 L24.0659341,62.8888889 C25.7142857,62.8888889 27.3626374,62.2222222 28.5714286,61 L35.1648352,54.3333333 C37.5824176,51.8888889 37.5824176,47.7777778 35.1648352,45.3333333 L28.5714286,38.6666667 C27.3626374,37.4444444 25.7142857,36.7777778 24.0659341,36.7777778 L24.0659341,36.7777778 Z M71.7582418,38.6666667 L65.1648352,45.3333333 C62.7472527,47.7777778 62.7472527,51.8888889 65.1648352,54.3333333 L71.7582418,61 C72.967033,62.2222222 74.5054945,62.8888889 76.2637363,62.8888889 L93.0769231,62.8888889 C96.5934066,62.8888889 99.4505495,60 99.4505495,56.4444444 L99.4505495,43.2222222 C99.4505495,39.6666667 96.5934066,36.7777778 93.0769231,36.7777778 L76.2637363,36.7777778 C74.5054945,36.7777778 72.967033,37.4444444 71.7582418,38.6666667 L71.7582418,38.6666667 Z M37.2527473,76.2222222 L37.2527473,93.2222222 C37.2527473,96.7777778 40.1098901,99.6666667 43.6263736,99.6666667 L56.7032967,99.6666667 C60.2197802,99.6666667 63.0769231,96.7777778 63.0769231,93.2222222 L63.0769231,76.2222222 C63.0769231,74.5555556 62.4175824,72.8888889 61.2087912,71.6666667 L54.6153846,65 C52.1978022,62.5555556 48.1318681,62.5555556 45.7142857,65 L39.1208791,71.6666667 C37.9120879,72.8888889 37.2527473,74.4444444 37.2527473,76.2222222 L37.2527473,76.2222222 Z" id="Shape"></path>
                </g>
            </g>
        </g>
    </g>
</svg>